<svg width="44" height="44" viewBox="0 0 44 44" fill="none" xmlns="http://www.w3.org/2000/svg">
<path fill-rule="evenodd" clip-rule="evenodd" d="M39.2257 8.56664C36.9687 8.56664 35.1632 10.4703 35.1632 12.8023C35.1632 13.659 35.3889 14.4681 35.8403 15.1343L28.7534 21.7021C27.7043 20.7007 26.4048 20.0373 25.0091 19.7906C23.6133 19.544 22.1797 19.7243 20.8782 20.3103C19.5766 20.8962 18.4617 21.8633 17.6654 23.0969C16.8691 24.3304 16.4249 25.7788 16.3854 27.2703C16.3854 31.5536 19.6805 34.9327 23.743 34.9327C27.8055 34.9327 31.1007 31.506 31.1007 27.3179C31.1007 25.557 30.559 23.9865 29.6111 22.6539L36.6979 16.0862C37.2932 16.6153 38.0203 16.953 38.7924 17.0588C39.5646 17.1647 40.3494 17.0343 41.0533 16.6833C41.7572 16.3323 42.3506 15.7754 42.7628 15.0789C43.175 14.3824 43.3887 13.5757 43.3785 12.7547C43.3785 10.4227 41.5729 8.51904 39.316 8.51904L39.2257 8.56664Z" fill="#33CB98"/>
<path d="M4.0625 8.56658C1.80556 8.56658 0 6.61531 0 4.28329C0 1.90369 1.80556 0 4.0625 0C6.31945 0 8.12501 1.90369 8.12501 4.28329C8.12501 5.33032 7.7639 6.28216 7.13195 7.04364L13.8125 14.8012C16.5208 12.4691 19.9514 11.089 23.6979 11.089V15.3723C17.3785 15.3723 12.2326 20.7026 12.2326 27.2703C12.2326 33.8856 17.3785 39.1683 23.6979 39.1683C30.0174 39.1683 35.1632 33.8856 35.1632 27.2703H39.2257C39.2257 36.2176 32.2743 43.4516 23.6979 43.4516C15.1215 43.4516 8.17015 36.2176 8.17015 27.2703C8.17015 22.7014 9.9757 18.6085 12.8646 15.6578L6.22917 7.90029C5.59723 8.28103 4.875 8.51899 4.0625 8.51899V8.56658Z" fill="#623BBB"/>
</svg>
